<svg viewBox="0 0 1024 1024" version="1.1" xmlns="http://www.w3.org/2000/svg" p-id="1476" width="20" height="20" class="transition-colors duration-300 ease-in-out"><path d="M838.144 805.88799999h-632.832c-40.448 0-73.728-33.28-73.728-73.728v-456.192c0-40.448 33.28-73.728 73.728-73.728H838.144c40.448 0 73.728 33.28 73.728 73.728v456.192c0 40.96-33.28 73.728-73.728 73.728zM205.312 253.43999999c-12.288 0-22.528 10.24-22.528 22.528v456.192c0 12.288 10.24 22.528 22.528 22.528H838.144c12.288 0 22.528-10.24 22.528-22.528v-456.192c0-12.288-10.24-22.528-22.528-22.528h-632.832z" class="fill-[#7E2FFF] group-hover:fill-[#ffffff]" p-id="1477"></path><path d="M445.44 350.20799999h46.592v274.432H445.44v-121.856h-134.144v121.856H266.24v-274.432h45.056v112.64H445.44v-112.64zM649.728 623.61599999h-99.328v-274.432h101.888c89.088 1.024 134.144 47.104 135.168 137.728 2.56 93.696-43.008 139.264-137.728 136.704z m1.536-233.472h-55.808V586.23999999h54.272c61.952 1.024 92.16-31.744 91.648-98.304-1.024-64-31.232-96.768-90.112-97.792z" class="fill-[#7E2FFF] group-hover:fill-[#ffffff]" p-id="1478"></path></svg>