<svg width="100" height="100" viewBox="0 0 100 100" fill="none" xmlns="http://www.w3.org/2000/svg">
<g clip-path="url(#clip0_335_30276)">
<path d="M23.8075 73.6137C23.194 73.5738 22.6635 74.0368 22.6226 74.6502L21.8102 86.8132C21.7692 87.4267 22.2334 87.9572 22.8467 87.9981C22.8721 87.9999 22.897 88.0006 22.9221 88.0006C23.5031 88.0006 23.9924 87.5499 24.0318 86.9616L24.8441 74.7987C24.8851 74.1852 24.421 73.6547 23.8075 73.6137Z" fill="#D0D5DD"/>
<path d="M78.1897 86.8134L77.1231 70.842C77.0821 70.2285 76.5491 69.7627 75.9381 69.8055C75.3247 69.8464 74.8605 70.3771 74.9016 70.9904L75.9683 86.9618C76.0076 87.5501 76.497 88.0008 77.078 88.0008C77.1029 88.0008 77.1281 88.0001 77.1534 87.9983C77.7667 87.9574 78.2308 87.4267 78.1897 86.8134Z" fill="#D0D5DD"/>
<path d="M75.6952 67.2956C75.7201 67.2956 75.7454 67.2948 75.7706 67.293C76.3841 67.2521 76.8482 66.7214 76.8071 66.1081L76.0286 54.4497C75.9106 52.6839 74.8534 51.0964 73.2694 50.3069L59.5148 43.4506L57.2725 40.7276C56.7339 40.0734 55.8023 39.8931 55.0582 40.298C55.0582 40.298 55.0582 40.298 55.0581 40.298L50.0001 43.052L44.9422 40.298C44.942 40.298 44.942 40.298 44.942 40.298C44.1984 39.8931 43.2667 40.0733 42.7277 40.7277L40.4855 43.4506L26.7309 50.3069C25.1468 51.0964 24.0897 52.6839 23.9717 54.4497L22.9393 69.9093C22.8984 70.5228 23.3625 71.0533 23.9758 71.0942C24.0012 71.096 24.0262 71.0968 24.0512 71.0968C24.6322 71.0968 25.1216 70.6458 25.1609 70.0577L26.1933 54.5981C26.2265 54.1001 26.395 53.6279 26.6675 53.2261L31.5437 68.6622C31.6415 68.9721 31.6848 69.2942 31.672 69.6193L30.9965 86.8438C30.9725 87.4581 31.451 87.9757 32.0652 87.9997C32.0802 88.0003 32.0948 88.0006 32.1096 88.0006C32.7044 88.0006 33.1978 87.5306 33.2212 86.931L33.8967 69.7064C33.9195 69.1238 33.8421 68.5468 33.6665 67.9914L28.5755 51.875L38.8685 46.7441L35.7559 50.3933C35.3958 50.8156 35.4015 51.4384 35.7694 51.8539L38.3595 54.7786L37.635 57.9288C37.5657 58.2305 37.6252 58.5476 37.799 58.8038L48.776 74.9661C48.7772 74.9677 48.7782 74.9693 48.7793 74.971L48.8867 75.1291V86.8861C48.8867 87.501 49.385 87.9993 50 87.9993C50.6149 87.9993 51.1132 87.501 51.1132 86.8861V75.1292L51.2213 74.9702C51.222 74.9692 51.2228 74.9682 51.2234 74.9671L56.9482 66.538C57.2936 66.0293 57.1615 65.337 56.6528 64.9916C56.1442 64.6462 55.4519 64.7784 55.1065 65.287L53.253 68.0159L55.3273 60.6854C56.2156 57.5465 56.6661 54.3006 56.6661 51.0384V49.5164L58.5868 47.1913L61.9225 51.1021L59.5939 53.7315C59.3556 54.0008 59.2618 54.3686 59.3424 54.7191L60.0867 57.9544L57.7793 61.3519C57.4339 61.8606 57.566 62.5529 58.0747 62.8983C58.2663 63.0284 58.4838 63.0908 58.6991 63.0908C59.0555 63.0908 59.4058 62.9199 59.621 62.6029L62.2012 58.8038C62.3752 58.5476 62.4346 58.2307 62.3653 57.9288L61.6408 54.7786L64.2309 51.8537C64.5989 51.4383 64.6045 50.8153 64.2444 50.3932L61.1319 46.7443L71.4248 51.8751L66.3336 67.9914C66.158 68.5468 66.0807 69.1239 66.1034 69.7067L66.7789 86.9312C66.8023 87.5307 67.2957 88.0008 67.8905 88.0008C67.9052 88.0008 67.92 88.0005 67.9349 87.9999C68.5492 87.9758 69.0276 87.4583 69.0036 86.8439L68.3281 69.6196C68.3153 69.2943 68.3586 68.9722 68.4565 68.6622L73.3326 53.2263C73.6051 53.6281 73.7736 54.1001 73.8068 54.5982L74.5854 66.2567C74.6248 66.8448 75.1142 67.2956 75.6952 67.2956ZM55.7928 42.4332L57.708 44.759L54.6931 48.4073L51.1134 46.4495V44.981L55.7928 42.4332ZM44.2073 42.4332L48.8867 44.981V46.4493L45.3055 48.407C45.3054 48.4068 45.3052 48.4067 45.3051 48.4064L42.2918 44.759L44.2073 42.4332ZM40.4064 53.7315L38.0778 51.1021L41.4135 47.1915L43.3342 49.5167V51.0384C43.3342 54.3008 43.7845 57.5465 44.6729 60.6854L46.7472 68.0158L39.9139 57.9544L40.6581 54.7191C40.7384 54.3686 40.6446 54.0008 40.4064 53.7315ZM53.1849 60.0792L50 71.3342L46.8151 60.0792C45.9827 57.1376 45.5605 54.0957 45.5605 51.0384V50.6186C45.8399 50.5869 46.1167 50.5021 46.3753 50.3608L50 48.3783L53.6245 50.3608C53.8833 50.5024 54.1601 50.5869 54.4394 50.6186V51.0384C54.4394 54.0958 54.0174 57.1376 53.1849 60.0792Z" fill="#D0D5DD"/>
<path d="M44.7771 21.0237L44.8841 21.0408C46.1365 21.2421 47.3746 20.701 48.1148 19.6295C48.5361 19.0195 49.23 18.6653 49.9729 18.6803C51.1201 18.7034 52.0652 19.6169 52.1244 20.7597C52.1562 21.3727 51.9423 21.954 51.5223 22.3964C51.2367 22.6972 50.8791 22.91 50.488 23.0118C48.1905 23.6109 46.5861 25.7035 46.5861 28.1007V28.4489C46.5861 30.2708 47.9827 31.7637 49.7657 31.8475C49.8203 31.8502 49.8745 31.8514 49.9288 31.8514C50.7912 31.8514 51.6034 31.5269 52.231 30.9283C52.7376 30.4452 53.0777 29.8114 53.2073 29.1304C54.402 28.6546 55.483 27.9257 56.3663 26.9952C58.0601 25.2109 58.9226 22.8735 58.7948 20.4134C58.5544 15.7905 54.7386 12.0954 50.1064 12.0019C47.0688 11.9396 44.236 13.4213 42.5479 15.9355C41.9218 16.8678 41.8164 18.0411 42.2657 19.0742C42.7183 20.1155 43.6567 20.8441 44.7771 21.0237ZM44.3962 17.1771C45.6365 15.3299 47.7038 14.227 49.9262 14.227C49.972 14.227 50.0176 14.2276 50.0624 14.2284C53.5325 14.2986 56.3914 17.0661 56.5712 20.5292C56.6671 22.3736 56.0208 24.1255 54.7514 25.4624C53.9567 26.2996 52.9472 26.9192 51.8317 27.2545C51.3612 27.3959 51.039 27.8292 51.039 28.3207V28.512C51.039 28.8192 50.9165 29.1054 50.694 29.3177C50.4718 29.5298 50.1827 29.6361 49.8704 29.6239C49.287 29.5963 48.8125 29.0693 48.8125 28.449V28.1008C48.8125 26.7165 49.7325 25.5099 51.0495 25.1665C51.8432 24.9596 52.5648 24.5318 53.1367 23.9293C53.9812 23.0396 54.4113 21.8731 54.3477 20.6443C54.228 18.3411 52.326 16.5007 50.0185 16.4543C49.9869 16.4535 49.9554 16.4532 49.9239 16.4532C48.4678 16.4532 47.112 17.1627 46.2825 18.3641C46.0346 18.7227 45.6342 18.9058 45.2353 18.8421L45.1281 18.825C44.6009 18.7406 44.3782 18.3503 44.3071 18.1865C44.2377 18.0267 44.107 17.6077 44.3962 17.1771Z" fill="#D0D5DD"/>
<path d="M49.9999 33.2031C48.1585 33.2031 46.6602 34.7014 46.6602 36.5428V37.0702C46.6602 38.9117 48.1585 40.4099 49.9999 40.4099C51.8414 40.4099 53.3397 38.9117 53.3397 37.0702V36.5428C53.3397 34.7012 51.8415 33.2031 49.9999 33.2031ZM51.1132 37.0701C51.1132 37.684 50.6139 38.1833 49.9999 38.1833C49.386 38.1833 48.8867 37.684 48.8867 37.0701V36.5427C48.8867 35.9288 49.386 35.4295 49.9999 35.4295C50.6139 35.4295 51.1132 35.9288 51.1132 36.5427V37.0701Z" fill="#D0D5DD"/>
</g>
<defs>
<clipPath id="clip0_335_30276">
<rect width="76" height="76" fill="white" transform="translate(12 12)"/>
</clipPath>
</defs>
</svg>
